<svg width="192" height="74" viewBox="0 0 192 74" fill="none" xmlns="http://www.w3.org/2000/svg">
<ellipse cx="61.0106" cy="36.969" rx="57" ry="23" transform="rotate(-15 61.0106 36.969)" fill="#DBC36D"/>
<ellipse cx="26.2373" cy="46.2865" rx="3" ry="12" transform="rotate(-15 26.2373 46.2865)" fill="#EDE0C0"/>
<ellipse cx="95.7839" cy="27.6515" rx="3" ry="12" transform="rotate(165 95.7839 27.6515)" fill="#EDE0C0"/>
<ellipse cx="43.141" cy="41.7571" rx="3.5" ry="15" transform="rotate(-15 43.141 41.7571)" fill="#EDE0C0"/>
<ellipse cx="78.8802" cy="32.1808" rx="3.5" ry="15" transform="rotate(165 78.8802 32.1808)" fill="#EDE0C0"/>
<ellipse cx="61.0106" cy="36.969" rx="4" ry="17" transform="rotate(-15 61.0106 36.969)" fill="#EDE0C0"/>
<path d="M21.5039 45.6044L23.3384 39.1552H24.2271L23.7129 41.6625L21.7388 48.3973H20.8564L21.5039 45.6044ZM19.606 39.1552L21.0659 45.4774L21.5039 48.3973H20.6279L18.3872 39.1552H19.606ZM26.6011 45.4711L28.0293 39.1552H29.2544L27.02 48.3973H26.144L26.6011 45.4711ZM24.3604 39.1552L26.144 45.6044L26.7915 48.3973H25.9092L24.0049 41.6625L23.4844 39.1552H24.3604ZM38.802 48.5243C38.3238 48.5243 37.8901 48.4439 37.5008 48.2831C37.1157 48.118 36.7835 47.8874 36.5042 47.5912C36.2291 47.295 36.0175 46.9437 35.8694 46.5375C35.7213 46.1312 35.6472 45.6869 35.6472 45.2045V44.9379C35.6472 44.3793 35.7298 43.882 35.8948 43.4462C36.0598 43.0061 36.2841 42.6337 36.5677 42.329C36.8512 42.0243 37.1728 41.7937 37.5325 41.6371C37.8922 41.4805 38.2646 41.4022 38.6497 41.4022C39.1406 41.4022 39.5637 41.4869 39.9192 41.6561C40.2789 41.8254 40.573 42.0624 40.8015 42.3671C41.0301 42.6675 41.1993 43.023 41.3094 43.4335C41.4194 43.8397 41.4744 44.2841 41.4744 44.7665V45.2933H36.3455V44.3348H40.3001V44.246C40.2832 43.9413 40.2197 43.6451 40.1096 43.3573C40.0039 43.0695 39.8346 42.8326 39.6018 42.6464C39.3691 42.4602 39.0517 42.3671 38.6497 42.3671C38.3831 42.3671 38.1376 42.4242 37.9134 42.5385C37.6891 42.6485 37.4965 42.8135 37.3357 43.0336C37.1749 43.2536 37.0501 43.5223 36.9612 43.8397C36.8723 44.1571 36.8279 44.5232 36.8279 44.9379V45.2045C36.8279 45.5303 36.8723 45.8371 36.9612 46.1249C37.0543 46.4084 37.1876 46.6581 37.3611 46.8739C37.5388 47.0897 37.7526 47.259 38.0022 47.3817C38.2561 47.5044 38.5439 47.5658 38.8655 47.5658C39.2802 47.5658 39.6315 47.4812 39.9192 47.3119C40.207 47.1426 40.4588 46.9162 40.6746 46.6327L41.3855 47.1976C41.2374 47.4219 41.0491 47.6356 40.8206 47.8387C40.5921 48.0419 40.3107 48.2069 39.9763 48.3339C39.6463 48.4608 39.2548 48.5243 38.802 48.5243ZM51.4156 48.5243C50.9374 48.5243 50.5036 48.4439 50.1143 48.2831C49.7292 48.118 49.397 47.8874 49.1177 47.5912C48.8427 47.295 48.6311 46.9437 48.483 46.5375C48.3349 46.1312 48.2608 45.6869 48.2608 45.2045V44.9379C48.2608 44.3793 48.3433 43.882 48.5084 43.4462C48.6734 43.0061 48.8977 42.6337 49.1812 42.329C49.4647 42.0243 49.7864 41.7937 50.1461 41.6371C50.5058 41.4805 50.8781 41.4022 51.2632 41.4022C51.7541 41.4022 52.1773 41.4869 52.5328 41.6561C52.8925 41.8254 53.1866 42.0624 53.4151 42.3671C53.6436 42.6675 53.8129 43.023 53.9229 43.4335C54.0329 43.8397 54.0879 44.2841 54.0879 44.7665V45.2933H48.959V44.3348H52.9136V44.246C52.8967 43.9413 52.8332 43.6451 52.7232 43.3573C52.6174 43.0695 52.4481 42.8326 52.2154 42.6464C51.9826 42.4602 51.6653 42.3671 51.2632 42.3671C50.9966 42.3671 50.7512 42.4242 50.5269 42.5385C50.3026 42.6485 50.1101 42.8135 49.9493 43.0336C49.7885 43.2536 49.6636 43.5223 49.5748 43.8397C49.4859 44.1571 49.4415 44.5232 49.4415 44.9379V45.2045C49.4415 45.5303 49.4859 45.8371 49.5748 46.1249C49.6679 46.4084 49.8012 46.6581 49.9747 46.8739C50.1524 47.0897 50.3661 47.259 50.6158 47.3817C50.8697 47.5044 51.1574 47.5658 51.4791 47.5658C51.8938 47.5658 52.245 47.4812 52.5328 47.3119C52.8205 47.1426 53.0723 46.9162 53.2881 46.6327L53.9991 47.1976C53.851 47.4219 53.6627 47.6356 53.4341 47.8387C53.2056 48.0419 52.9242 48.2069 52.5899 48.3339C52.2598 48.4608 51.8684 48.5243 51.4156 48.5243ZM61.1727 38.6473H62.3534V47.0643L62.2518 48.3973H61.1727V38.6473ZM66.9935 44.9061V45.0394C66.9935 45.5388 66.9343 46.0022 66.8158 46.4296C66.6973 46.8527 66.5238 47.2209 66.2953 47.5341C66.0667 47.8472 65.7874 48.0905 65.4574 48.264C65.1273 48.4375 64.7485 48.5243 64.3211 48.5243C63.8853 48.5243 63.5023 48.4502 63.1722 48.3021C62.8464 48.1498 62.5713 47.9318 62.347 47.6483C62.1227 47.3648 61.9429 47.022 61.8075 46.62C61.6763 46.218 61.5853 45.7652 61.5345 45.2616V44.6776C61.5853 44.1698 61.6763 43.7149 61.8075 43.3129C61.9429 42.9108 62.1227 42.5681 62.347 42.2845C62.5713 41.9968 62.8464 41.7788 63.1722 41.6307C63.4981 41.4784 63.8768 41.4022 64.3084 41.4022C64.7401 41.4022 65.1231 41.4869 65.4574 41.6561C65.7917 41.8212 66.071 42.0581 66.2953 42.3671C66.5238 42.676 66.6973 43.0463 66.8158 43.4779C66.9343 43.9053 66.9935 44.3814 66.9935 44.9061ZM65.8128 45.0394V44.9061C65.8128 44.5634 65.7811 44.2417 65.7176 43.9413C65.6541 43.6366 65.5526 43.37 65.4129 43.1415C65.2733 42.9087 65.0892 42.7268 64.8607 42.5956C64.6322 42.4602 64.3508 42.3925 64.0164 42.3925C63.7202 42.3925 63.4621 42.4432 63.242 42.5448C63.0262 42.6464 62.8421 42.7839 62.6898 42.9574C62.5374 43.1267 62.4126 43.3213 62.3153 43.5414C62.2222 43.7572 62.1524 43.9815 62.1058 44.2142V45.744C62.1735 46.0402 62.2835 46.3259 62.4359 46.601C62.5925 46.8718 62.7998 47.094 63.0579 47.2675C63.3203 47.441 63.644 47.5277 64.0291 47.5277C64.3465 47.5277 64.6174 47.4642 64.8416 47.3373C65.0702 47.2061 65.2542 47.0262 65.3939 46.7977C65.5378 46.5692 65.6436 46.3047 65.7113 46.0043C65.779 45.7038 65.8128 45.3822 65.8128 45.0394ZM75.4747 38.6473V48.3973H74.2941V38.6473H75.4747ZM85.9301 48.5243C85.4519 48.5243 85.0181 48.4439 84.6288 48.2831C84.2437 48.118 83.9115 47.8874 83.6322 47.5912C83.3572 47.295 83.1456 46.9437 82.9975 46.5375C82.8493 46.1312 82.7753 45.6869 82.7753 45.2045V44.9379C82.7753 44.3793 82.8578 43.882 83.0229 43.4462C83.1879 43.0061 83.4122 42.6337 83.6957 42.329C83.9792 42.0243 84.3008 41.7937 84.6605 41.6371C85.0202 41.4805 85.3926 41.4022 85.7777 41.4022C86.2686 41.4022 86.6918 41.4869 87.0473 41.6561C87.407 41.8254 87.7011 42.0624 87.9296 42.3671C88.1581 42.6675 88.3274 43.023 88.4374 43.4335C88.5474 43.8397 88.6024 44.2841 88.6024 44.7665V45.2933H83.4735V44.3348H87.4281V44.246C87.4112 43.9413 87.3477 43.6451 87.2377 43.3573C87.1319 43.0695 86.9626 42.8326 86.7299 42.6464C86.4971 42.4602 86.1798 42.3671 85.7777 42.3671C85.5111 42.3671 85.2657 42.4242 85.0414 42.5385C84.8171 42.6485 84.6246 42.8135 84.4638 43.0336C84.303 43.2536 84.1781 43.5223 84.0893 43.8397C84.0004 44.1571 83.956 44.5232 83.956 44.9379V45.2045C83.956 45.5303 84.0004 45.8371 84.0893 46.1249C84.1824 46.4084 84.3157 46.6581 84.4892 46.8739C84.6669 47.0897 84.8806 47.259 85.1303 47.3817C85.3842 47.5044 85.6719 47.5658 85.9936 47.5658C86.4083 47.5658 86.7595 47.4812 87.0473 47.3119C87.335 47.1426 87.5868 46.9162 87.8026 46.6327L88.5136 47.1976C88.3655 47.4219 88.1771 47.6356 87.9486 47.8387C87.7201 48.0419 87.4387 48.2069 87.1044 48.3339C86.7743 48.4608 86.3829 48.5243 85.9301 48.5243ZM96.3727 38.6473V39.4598C96.3727 39.7137 96.3283 39.9825 96.2394 40.266C96.1548 40.5453 96.03 40.8161 95.8649 41.0785C95.6999 41.3366 95.501 41.563 95.2682 41.7577L94.5954 41.2943C94.7943 41.015 94.9445 40.7294 95.0461 40.4374C95.1519 40.1412 95.2048 39.8217 95.2048 39.4789V38.6473H96.3727ZM106.796 46.5756C106.796 46.4063 106.758 46.2497 106.682 46.1058C106.61 45.9577 106.46 45.8244 106.231 45.7059C106.007 45.5832 105.669 45.4774 105.216 45.3885C104.835 45.3081 104.49 45.2129 104.181 45.1029C103.876 44.9929 103.616 44.8596 103.4 44.703C103.189 44.5464 103.026 44.3623 102.912 44.1508C102.797 43.9392 102.74 43.6916 102.74 43.4081C102.74 43.1372 102.799 42.8812 102.918 42.64C103.041 42.3988 103.212 42.1851 103.432 41.9989C103.656 41.8127 103.925 41.6667 104.238 41.5609C104.551 41.4551 104.901 41.4022 105.286 41.4022C105.836 41.4022 106.305 41.4996 106.695 41.6942C107.084 41.8889 107.382 42.1491 107.59 42.475C107.797 42.7966 107.901 43.1542 107.901 43.5477H106.727C106.727 43.3573 106.669 43.1732 106.555 42.9955C106.445 42.8135 106.282 42.6633 106.066 42.5448C105.855 42.4263 105.595 42.3671 105.286 42.3671C104.96 42.3671 104.695 42.4178 104.492 42.5194C104.293 42.6167 104.147 42.7416 104.054 42.8939C103.965 43.0463 103.921 43.2071 103.921 43.3763C103.921 43.5033 103.942 43.6176 103.984 43.7191C104.031 43.8164 104.111 43.9074 104.226 43.9921C104.34 44.0725 104.501 44.1486 104.708 44.2206C104.915 44.2925 105.18 44.3645 105.501 44.4364C106.064 44.5634 106.528 44.7157 106.892 44.8934C107.255 45.0712 107.526 45.2891 107.704 45.5472C107.882 45.8054 107.971 46.1185 107.971 46.4867C107.971 46.7872 107.907 47.0622 107.78 47.3119C107.658 47.5616 107.478 47.7774 107.241 47.9594C107.008 48.1371 106.729 48.2767 106.403 48.3783C106.081 48.4756 105.719 48.5243 105.317 48.5243C104.712 48.5243 104.2 48.4164 103.781 48.2006C103.362 47.9847 103.045 47.7054 102.829 47.3627C102.613 47.0199 102.505 46.6581 102.505 46.2772H103.686C103.703 46.5988 103.796 46.8549 103.965 47.0453C104.135 47.2315 104.342 47.3648 104.587 47.4452C104.833 47.5214 105.076 47.5594 105.317 47.5594C105.639 47.5594 105.908 47.5171 106.123 47.4325C106.344 47.3479 106.511 47.2315 106.625 47.0834C106.739 46.9353 106.796 46.766 106.796 46.5756ZM127.65 44.0746H125.308L125.295 43.0907H127.421C127.773 43.0907 128.079 43.0315 128.342 42.913C128.604 42.7945 128.807 42.6252 128.951 42.4052C129.099 42.1809 129.173 41.9143 129.173 41.6053C129.173 41.2668 129.108 40.9917 128.977 40.7802C128.85 40.5643 128.653 40.4078 128.386 40.3104C128.124 40.2089 127.79 40.1581 127.383 40.1581H125.581V48.3973H124.355V39.1552H127.383C127.857 39.1552 128.28 39.2038 128.653 39.3011C129.025 39.3942 129.341 39.5424 129.599 39.7455C129.861 39.9444 130.06 40.1983 130.195 40.5072C130.331 40.8161 130.398 41.1864 130.398 41.618C130.398 41.9989 130.301 42.3438 130.106 42.6527C129.912 42.9574 129.641 43.2071 129.294 43.4017C128.951 43.5964 128.549 43.7212 128.088 43.7762L127.65 44.0746ZM127.593 48.3973H124.825L125.517 47.4008H127.593C127.982 47.4008 128.312 47.333 128.583 47.1976C128.858 47.0622 129.068 46.8718 129.211 46.6263C129.355 46.3767 129.427 46.0826 129.427 45.744C129.427 45.4012 129.366 45.105 129.243 44.8553C129.12 44.6057 128.928 44.4131 128.666 44.2777C128.403 44.1423 128.065 44.0746 127.65 44.0746H125.904L125.917 43.0907H128.304L128.564 43.4462C129.008 43.4843 129.385 43.6112 129.694 43.827C130.003 44.0386 130.238 44.3094 130.398 44.6395C130.563 44.9696 130.646 45.3335 130.646 45.7313C130.646 46.3068 130.519 46.7935 130.265 47.1913C130.015 47.5848 129.662 47.8853 129.205 48.0927C128.748 48.2958 128.211 48.3973 127.593 48.3973ZM142.047 47.223V43.6874C142.047 43.4165 141.992 43.1817 141.882 42.9828C141.776 42.7797 141.616 42.6231 141.4 42.5131C141.184 42.403 140.917 42.348 140.6 42.348C140.304 42.348 140.043 42.3988 139.819 42.5004C139.599 42.6019 139.426 42.7352 139.299 42.9003C139.176 43.0653 139.115 43.243 139.115 43.4335H137.94C137.94 43.188 138.004 42.9447 138.131 42.7035C138.258 42.4623 138.44 42.2443 138.677 42.0497C138.918 41.8508 139.206 41.6942 139.54 41.58C139.878 41.4615 140.255 41.4022 140.67 41.4022C141.169 41.4022 141.609 41.4869 141.99 41.6561C142.375 41.8254 142.676 42.0814 142.891 42.4242C143.111 42.7627 143.221 43.188 143.221 43.7001V46.8993C143.221 47.1278 143.241 47.3711 143.279 47.6293C143.321 47.8874 143.382 48.1096 143.463 48.2958V48.3973H142.238C142.178 48.2619 142.132 48.0821 142.098 47.8578C142.064 47.6293 142.047 47.4177 142.047 47.223ZM142.25 44.2333L142.263 45.0585H141.076C140.742 45.0585 140.443 45.086 140.181 45.141C139.919 45.1918 139.699 45.2701 139.521 45.3759C139.343 45.4816 139.208 45.6149 139.115 45.7758C139.021 45.9323 138.975 46.1164 138.975 46.328C138.975 46.5438 139.024 46.7406 139.121 46.9183C139.218 47.0961 139.364 47.2378 139.559 47.3436C139.758 47.4452 140.001 47.496 140.289 47.496C140.649 47.496 140.966 47.4198 141.241 47.2675C141.516 47.1151 141.734 46.9289 141.895 46.7089C142.06 46.4888 142.149 46.2751 142.161 46.0677L142.663 46.6327C142.633 46.8104 142.553 47.0072 142.422 47.223C142.29 47.4388 142.115 47.6462 141.895 47.8451C141.679 48.0398 141.421 48.2027 141.12 48.3339C140.824 48.4608 140.49 48.5243 140.117 48.5243C139.652 48.5243 139.244 48.4333 138.892 48.2513C138.545 48.0694 138.275 47.826 138.08 47.5214C137.889 47.2124 137.794 46.8676 137.794 46.4867C137.794 46.1185 137.866 45.7948 138.01 45.5155C138.154 45.232 138.361 44.9971 138.632 44.8109C138.903 44.6205 139.229 44.4766 139.61 44.3793C139.991 44.2819 140.416 44.2333 140.886 44.2333H142.25ZM151.969 38.6473V48.3973H150.789V38.6473H151.969ZM156.165 41.5292L153.169 44.7347L151.493 46.474L151.398 45.2235L152.598 43.7889L154.731 41.5292H156.165ZM155.092 48.3973L152.642 45.1219L153.252 44.0746L156.476 48.3973H155.092ZM165.821 48.5243C165.342 48.5243 164.909 48.4439 164.519 48.2831C164.134 48.118 163.802 47.8874 163.523 47.5912C163.248 47.295 163.036 46.9437 162.888 46.5375C162.74 46.1312 162.666 45.6869 162.666 45.2045V44.9379C162.666 44.3793 162.748 43.882 162.913 43.4462C163.078 43.0061 163.303 42.6337 163.586 42.329C163.87 42.0243 164.191 41.7937 164.551 41.6371C164.911 41.4805 165.283 41.4022 165.668 41.4022C166.159 41.4022 166.582 41.4869 166.938 41.6561C167.298 41.8254 167.592 42.0624 167.82 42.3671C168.049 42.6675 168.218 43.023 168.328 43.4335C168.438 43.8397 168.493 44.2841 168.493 44.7665V45.2933H163.364V44.3348H167.319V44.246C167.302 43.9413 167.238 43.6451 167.128 43.3573C167.022 43.0695 166.853 42.8326 166.62 42.6464C166.388 42.4602 166.07 42.3671 165.668 42.3671C165.402 42.3671 165.156 42.4242 164.932 42.5385C164.708 42.6485 164.515 42.8135 164.354 43.0336C164.194 43.2536 164.069 43.5223 163.98 43.8397C163.891 44.1571 163.847 44.5232 163.847 44.9379V45.2045C163.847 45.5303 163.891 45.8371 163.98 46.1249C164.073 46.4084 164.206 46.6581 164.38 46.8739C164.557 47.0897 164.771 47.259 165.021 47.3817C165.275 47.5044 165.563 47.5658 165.884 47.5658C166.299 47.5658 166.65 47.4812 166.938 47.3119C167.226 47.1426 167.477 46.9162 167.693 46.6327L168.404 47.1976C168.256 47.4219 168.068 47.6356 167.839 47.8387C167.611 48.0419 167.329 48.2069 166.995 48.3339C166.665 48.4608 166.273 48.5243 165.821 48.5243ZM176.758 42.6083V48.3973H175.584V41.5292H176.727L176.758 42.6083ZM178.904 41.4911L178.898 42.5829C178.8 42.5617 178.707 42.549 178.618 42.5448C178.534 42.5363 178.436 42.5321 178.326 42.5321C178.055 42.5321 177.816 42.5744 177.609 42.6591C177.402 42.7437 177.226 42.8622 177.082 43.0145C176.938 43.1669 176.824 43.3488 176.739 43.5604C176.659 43.7678 176.606 43.9963 176.581 44.246L176.251 44.4364C176.251 44.0217 176.291 43.6324 176.371 43.2684C176.456 42.9045 176.585 42.5829 176.758 42.3036C176.932 42.0201 177.152 41.8 177.419 41.6434C177.689 41.4826 178.011 41.4022 178.383 41.4022C178.468 41.4022 178.565 41.4128 178.675 41.434C178.785 41.4509 178.862 41.4699 178.904 41.4911ZM187.753 47.6864L189.664 41.5292H190.921L188.166 49.4574C188.102 49.6267 188.018 49.8086 187.912 50.0033C187.81 50.2022 187.679 50.3905 187.518 50.5682C187.358 50.746 187.163 50.8899 186.934 50.9999C186.71 51.1141 186.441 51.1713 186.128 51.1713C186.035 51.1713 185.917 51.1586 185.773 51.1332C185.629 51.1078 185.527 51.0866 185.468 51.0697L185.462 50.1176C185.496 50.1218 185.549 50.126 185.621 50.1302C185.697 50.1387 185.75 50.1429 185.779 50.1429C186.046 50.1429 186.272 50.107 186.458 50.035C186.645 49.9673 186.801 49.851 186.928 49.6859C187.059 49.5251 187.171 49.3029 187.265 49.0194L187.753 47.6864ZM186.351 41.5292L188.134 46.8612L188.439 48.099L187.595 48.5306L185.068 41.5292H186.351Z" fill="#989898"/>
</svg>
