<svg width="39" height="39" viewBox="0 0 39 39" fill="none" xmlns="http://www.w3.org/2000/svg">
<path d="M33.3748 7.57149L34.8715 9.49483L33.8204 10.3137L34.8753 9.49483L33.3786 7.57149H33.3748Z" fill="black" fill-opacity="0.15"/>
<path d="M35.3438 6.09375H3.65625C2.98213 6.09375 2.4375 6.63838 2.4375 7.3125V31.6875C2.4375 32.3616 2.98213 32.9062 3.65625 32.9062H35.3438C36.0179 32.9062 36.5625 32.3616 36.5625 31.6875V7.3125C36.5625 6.63838 36.0179 6.09375 35.3438 6.09375ZM31.7446 8.83975L19.5 18.3574L7.25537 8.83975H31.7446ZM33.8203 10.3137V30.1641H5.17969V10.3137L4.12852 9.49482L5.17588 10.3099L18.186 20.4255C18.5602 20.7162 19.0205 20.874 19.4943 20.874C19.9681 20.874 20.4284 20.7162 20.8025 20.4255L33.8203 10.3137L34.8715 9.49482L33.3747 7.57148H33.3785L34.8753 9.49482L33.8203 10.3137Z" fill="white"/>
</svg>
