<svg width="192" height="70" viewBox="0 0 192 70" fill="none" xmlns="http://www.w3.org/2000/svg">
<ellipse rx="45.2694" ry="22.6937" transform="matrix(0.945406 -0.325896 0.203903 0.978991 47.4253 32.97)" fill="#D9B639"/>
<ellipse rx="2.3826" ry="11.8402" transform="matrix(0.945406 -0.325896 0.203903 0.978991 20.3949 42.2877)" fill="#F2CE70"/>
<ellipse rx="2.3826" ry="11.8402" transform="matrix(-0.945406 0.325896 -0.203903 -0.978991 74.4555 23.6522)" fill="#F2CE70"/>
<ellipse rx="2.7797" ry="14.8002" transform="matrix(0.945406 -0.325896 0.203903 0.978991 33.5347 37.7583)" fill="#F2CE70"/>
<ellipse rx="2.7797" ry="14.8002" transform="matrix(-0.945406 0.325896 -0.203903 -0.978991 61.3158 28.1817)" fill="#F2CE70"/>
<ellipse rx="3.1768" ry="16.7736" transform="matrix(0.945406 -0.325896 0.203903 0.978991 47.4253 32.97)" fill="#F2CE70"/>
<path d="M19.0504 41.208L20.8849 34.7588H21.7736L21.2594 37.2661L19.2853 44.001H18.403L19.0504 41.208ZM17.1525 34.7588L18.6124 41.0811L19.0504 44.001H18.1744L15.9337 34.7588H17.1525ZM24.1476 41.0747L25.5758 34.7588H26.8009L24.5665 44.001H23.6906L24.1476 41.0747ZM21.9069 34.7588L23.6906 41.208L24.338 44.001H23.4557L21.5514 37.2661L21.0309 34.7588H21.9069ZM36.3485 44.1279C35.8703 44.1279 35.4366 44.0475 35.0473 43.8867C34.6622 43.7217 34.33 43.491 34.0507 43.1948C33.7756 42.8986 33.564 42.5474 33.4159 42.1411C33.2678 41.7349 33.1938 41.2905 33.1938 40.8081V40.5415C33.1938 39.9829 33.2763 39.4857 33.4413 39.0498C33.6064 38.6097 33.8306 38.2373 34.1142 37.9326C34.3977 37.6279 34.7193 37.3973 35.079 37.2407C35.4387 37.0841 35.8111 37.0059 36.1962 37.0059C36.6871 37.0059 37.1103 37.0905 37.4657 37.2598C37.8254 37.429 38.1195 37.666 38.3481 37.9707C38.5766 38.2712 38.7458 38.6266 38.8559 39.0371C38.9659 39.4434 39.0209 39.8877 39.0209 40.3701V40.897H33.892V39.9385H37.8466V39.8496C37.8297 39.5449 37.7662 39.2487 37.6562 38.9609C37.5504 38.6732 37.3811 38.4362 37.1483 38.25C36.9156 38.0638 36.5982 37.9707 36.1962 37.9707C35.9296 37.9707 35.6842 38.0278 35.4599 38.1421C35.2356 38.2521 35.043 38.4172 34.8822 38.6372C34.7214 38.8573 34.5966 39.126 34.5077 39.4434C34.4189 39.7607 34.3744 40.1268 34.3744 40.5415V40.8081C34.3744 41.134 34.4189 41.4408 34.5077 41.7285C34.6008 42.012 34.7341 42.2617 34.9076 42.4775C35.0854 42.6934 35.2991 42.8626 35.5487 42.9854C35.8026 43.1081 36.0904 43.1694 36.412 43.1694C36.8267 43.1694 37.178 43.0848 37.4657 42.9155C37.7535 42.7463 38.0053 42.5199 38.2211 42.2363L38.932 42.8013C38.7839 43.0256 38.5956 43.2393 38.3671 43.4424C38.1386 43.6455 37.8572 43.8105 37.5229 43.9375C37.1928 44.0645 36.8013 44.1279 36.3485 44.1279ZM48.9621 44.1279C48.4839 44.1279 48.0501 44.0475 47.6608 43.8867C47.2757 43.7217 46.9435 43.491 46.6642 43.1948C46.3892 42.8986 46.1776 42.5474 46.0295 42.1411C45.8814 41.7349 45.8073 41.2905 45.8073 40.8081V40.5415C45.8073 39.9829 45.8898 39.4857 46.0549 39.0498C46.2199 38.6097 46.4442 38.2373 46.7277 37.9326C47.0112 37.6279 47.3329 37.3973 47.6926 37.2407C48.0523 37.0841 48.4247 37.0059 48.8097 37.0059C49.3006 37.0059 49.7238 37.0905 50.0793 37.2598C50.439 37.429 50.7331 37.666 50.9616 37.9707C51.1901 38.2712 51.3594 38.6266 51.4694 39.0371C51.5794 39.4434 51.6345 39.8877 51.6345 40.3701V40.897H46.5056V39.9385H50.4601V39.8496C50.4432 39.5449 50.3797 39.2487 50.2697 38.9609C50.1639 38.6732 49.9946 38.4362 49.7619 38.25C49.5292 38.0638 49.2118 37.9707 48.8097 37.9707C48.5431 37.9707 48.2977 38.0278 48.0734 38.1421C47.8491 38.2521 47.6566 38.4172 47.4958 38.6372C47.335 38.8573 47.2101 39.126 47.1213 39.4434C47.0324 39.7607 46.988 40.1268 46.988 40.5415V40.8081C46.988 41.134 47.0324 41.4408 47.1213 41.7285C47.2144 42.012 47.3477 42.2617 47.5212 42.4775C47.6989 42.6934 47.9126 42.8626 48.1623 42.9854C48.4162 43.1081 48.704 43.1694 49.0256 43.1694C49.4403 43.1694 49.7915 43.0848 50.0793 42.9155C50.367 42.7463 50.6188 42.5199 50.8347 42.2363L51.5456 42.8013C51.3975 43.0256 51.2092 43.2393 50.9806 43.4424C50.7521 43.6455 50.4707 43.8105 50.1364 43.9375C49.8063 44.0645 49.4149 44.1279 48.9621 44.1279ZM58.7192 34.251H59.8999V42.668L59.7983 44.001H58.7192V34.251ZM64.54 40.5098V40.6431C64.54 41.1424 64.4808 41.6058 64.3623 42.0332C64.2438 42.4564 64.0703 42.8245 63.8418 43.1377C63.6132 43.4508 63.334 43.6942 63.0039 43.8677C62.6738 44.0412 62.2951 44.1279 61.8676 44.1279C61.4318 44.1279 61.0488 44.0539 60.7187 43.9058C60.3929 43.7534 60.1178 43.5355 59.8935 43.252C59.6692 42.9684 59.4894 42.6257 59.354 42.2236C59.2228 41.8216 59.1318 41.3688 59.081 40.8652V40.2812C59.1318 39.7734 59.2228 39.3185 59.354 38.9165C59.4894 38.5145 59.6692 38.1717 59.8935 37.8882C60.1178 37.6004 60.3929 37.3825 60.7187 37.2344C61.0446 37.082 61.4233 37.0059 61.8549 37.0059C62.2866 37.0059 62.6696 37.0905 63.0039 37.2598C63.3382 37.4248 63.6175 37.6618 63.8418 37.9707C64.0703 38.2796 64.2438 38.6499 64.3623 39.0815C64.4808 39.509 64.54 39.985 64.54 40.5098ZM63.3593 40.6431V40.5098C63.3593 40.167 63.3276 39.8454 63.2641 39.5449C63.2006 39.2402 63.0991 38.9736 62.9594 38.7451C62.8198 38.5124 62.6357 38.3304 62.4072 38.1992C62.1787 38.0638 61.8973 37.9961 61.563 37.9961C61.2667 37.9961 61.0086 38.0469 60.7885 38.1484C60.5727 38.25 60.3886 38.3875 60.2363 38.561C60.084 38.7303 59.9591 38.925 59.8618 39.145C59.7687 39.3608 59.6989 39.5851 59.6523 39.8179V41.3477C59.72 41.6439 59.83 41.9295 59.9824 42.2046C60.139 42.4754 60.3463 42.6976 60.6045 42.8711C60.8668 43.0446 61.1906 43.1313 61.5756 43.1313C61.893 43.1313 62.1639 43.0679 62.3881 42.9409C62.6167 42.8097 62.8007 42.6299 62.9404 42.4014C63.0843 42.1729 63.1901 41.9084 63.2578 41.6079C63.3255 41.3075 63.3593 40.9858 63.3593 40.6431ZM73.0212 34.251V44.001H71.8406V34.251H73.0212ZM83.4766 44.1279C82.9984 44.1279 82.5646 44.0475 82.1753 43.8867C81.7902 43.7217 81.458 43.491 81.1787 43.1948C80.9037 42.8986 80.6921 42.5474 80.544 42.1411C80.3959 41.7349 80.3218 41.2905 80.3218 40.8081V40.5415C80.3218 39.9829 80.4043 39.4857 80.5694 39.0498C80.7344 38.6097 80.9587 38.2373 81.2422 37.9326C81.5257 37.6279 81.8474 37.3973 82.2071 37.2407C82.5668 37.0841 82.9392 37.0059 83.3242 37.0059C83.8151 37.0059 84.2383 37.0905 84.5938 37.2598C84.9535 37.429 85.2476 37.666 85.4761 37.9707C85.7046 38.2712 85.8739 38.6266 85.9839 39.0371C86.0939 39.4434 86.1489 39.8877 86.1489 40.3701V40.897H81.02V39.9385H84.9746V39.8496C84.9577 39.5449 84.8942 39.2487 84.7842 38.9609C84.6784 38.6732 84.5091 38.4362 84.2764 38.25C84.0436 38.0638 83.7263 37.9707 83.3242 37.9707C83.0576 37.9707 82.8122 38.0278 82.5879 38.1421C82.3636 38.2521 82.1711 38.4172 82.0103 38.6372C81.8495 38.8573 81.7246 39.126 81.6358 39.4434C81.5469 39.7607 81.5025 40.1268 81.5025 40.5415V40.8081C81.5025 41.134 81.5469 41.4408 81.6358 41.7285C81.7289 42.012 81.8622 42.2617 82.0357 42.4775C82.2134 42.6934 82.4271 42.8626 82.6768 42.9854C82.9307 43.1081 83.2184 43.1694 83.5401 43.1694C83.9548 43.1694 84.306 43.0848 84.5938 42.9155C84.8815 42.7463 85.1333 42.5199 85.3491 42.2363L86.0601 42.8013C85.912 43.0256 85.7237 43.2393 85.4951 43.4424C85.2666 43.6455 84.9852 43.8105 84.6509 43.9375C84.3208 44.0645 83.9294 44.1279 83.4766 44.1279ZM93.9192 34.251V35.0635C93.9192 35.3174 93.8748 35.5861 93.7859 35.8696C93.7013 36.1489 93.5765 36.4198 93.4114 36.6821C93.2464 36.9403 93.0475 37.1667 92.8148 37.3613L92.1419 36.8979C92.3408 36.6187 92.491 36.333 92.5926 36.041C92.6984 35.7448 92.7513 35.4253 92.7513 35.0825V34.251H93.9192ZM104.343 42.1792C104.343 42.0099 104.305 41.8534 104.229 41.7095C104.157 41.5614 104.006 41.4281 103.778 41.3096C103.554 41.1868 103.215 41.0811 102.762 40.9922C102.381 40.9118 102.037 40.8166 101.728 40.7065C101.423 40.5965 101.163 40.4632 100.947 40.3066C100.735 40.1501 100.572 39.966 100.458 39.7544C100.344 39.5428 100.287 39.2952 100.287 39.0117C100.287 38.7409 100.346 38.4849 100.464 38.2437C100.587 38.0024 100.759 37.7887 100.979 37.6025C101.203 37.4163 101.472 37.2703 101.785 37.1646C102.098 37.0588 102.447 37.0059 102.832 37.0059C103.382 37.0059 103.852 37.1032 104.241 37.2979C104.631 37.4925 104.929 37.7528 105.136 38.0786C105.344 38.4002 105.447 38.7578 105.447 39.1514H104.273C104.273 38.9609 104.216 38.7769 104.102 38.5991C103.992 38.4172 103.829 38.2669 103.613 38.1484C103.401 38.0299 103.141 37.9707 102.832 37.9707C102.506 37.9707 102.242 38.0215 102.039 38.123C101.84 38.2204 101.694 38.3452 101.601 38.4976C101.512 38.6499 101.467 38.8107 101.467 38.98C101.467 39.1069 101.489 39.2212 101.531 39.3228C101.577 39.4201 101.658 39.5111 101.772 39.5957C101.886 39.6761 102.047 39.7523 102.254 39.8242C102.462 39.8962 102.726 39.9681 103.048 40.04C103.611 40.167 104.074 40.3193 104.438 40.4971C104.802 40.6748 105.073 40.8927 105.251 41.1509C105.428 41.409 105.517 41.7222 105.517 42.0903C105.517 42.3908 105.454 42.6659 105.327 42.9155C105.204 43.1652 105.024 43.381 104.787 43.563C104.554 43.7407 104.275 43.8804 103.949 43.9819C103.628 44.0793 103.266 44.1279 102.864 44.1279C102.259 44.1279 101.747 44.02 101.328 43.8042C100.909 43.5884 100.591 43.3091 100.376 42.9663C100.16 42.6235 100.052 42.2617 100.052 41.8809H101.233C101.249 42.2025 101.343 42.4585 101.512 42.6489C101.681 42.8351 101.888 42.9684 102.134 43.0488C102.379 43.125 102.623 43.1631 102.864 43.1631C103.185 43.1631 103.454 43.1208 103.67 43.0361C103.89 42.9515 104.057 42.8351 104.171 42.687C104.286 42.5389 104.343 42.3696 104.343 42.1792ZM125.196 39.6782H122.854L122.841 38.6943H124.968C125.319 38.6943 125.626 38.6351 125.888 38.5166C126.151 38.3981 126.354 38.2288 126.498 38.0088C126.646 37.7845 126.72 37.5179 126.72 37.209C126.72 36.8704 126.654 36.5954 126.523 36.3838C126.396 36.168 126.199 36.0114 125.933 35.9141C125.67 35.8125 125.336 35.7617 124.93 35.7617H123.127V44.001H121.902V34.7588H124.93C125.404 34.7588 125.827 34.8075 126.199 34.9048C126.572 34.9979 126.887 35.146 127.145 35.3491C127.408 35.548 127.606 35.8019 127.742 36.1108C127.877 36.4198 127.945 36.79 127.945 37.2217C127.945 37.6025 127.848 37.9474 127.653 38.2563C127.458 38.561 127.187 38.8107 126.84 39.0054C126.498 39.2 126.096 39.3249 125.634 39.3799L125.196 39.6782ZM125.139 44.001H122.372L123.064 43.0044H125.139C125.529 43.0044 125.859 42.9367 126.13 42.8013C126.405 42.6659 126.614 42.4754 126.758 42.23C126.902 41.9803 126.974 41.6862 126.974 41.3477C126.974 41.0049 126.912 40.7087 126.79 40.459C126.667 40.2093 126.474 40.0168 126.212 39.8813C125.95 39.7459 125.611 39.6782 125.196 39.6782H123.451L123.464 38.6943H125.85L126.11 39.0498C126.555 39.0879 126.931 39.2148 127.24 39.4307C127.549 39.6423 127.784 39.9131 127.945 40.2432C128.11 40.5732 128.193 40.9372 128.193 41.335C128.193 41.9105 128.066 42.3971 127.812 42.7949C127.562 43.1885 127.209 43.4889 126.752 43.6963C126.295 43.8994 125.757 44.001 125.139 44.001ZM139.594 42.8267V39.291C139.594 39.0202 139.539 38.7853 139.429 38.5864C139.323 38.3833 139.162 38.2267 138.946 38.1167C138.73 38.0067 138.464 37.9517 138.146 37.9517C137.85 37.9517 137.59 38.0024 137.366 38.104C137.146 38.2056 136.972 38.3389 136.845 38.5039C136.722 38.6689 136.661 38.8467 136.661 39.0371H135.487C135.487 38.7917 135.55 38.5483 135.677 38.3071C135.804 38.0659 135.986 37.848 136.223 37.6533C136.464 37.4544 136.752 37.2979 137.086 37.1836C137.425 37.0651 137.802 37.0059 138.216 37.0059C138.716 37.0059 139.156 37.0905 139.537 37.2598C139.922 37.429 140.222 37.6851 140.438 38.0278C140.658 38.3664 140.768 38.7917 140.768 39.3037V42.5029C140.768 42.7314 140.787 42.9748 140.825 43.2329C140.867 43.491 140.929 43.7132 141.009 43.8994V44.001H139.784C139.725 43.8656 139.678 43.6857 139.644 43.4614C139.611 43.2329 139.594 43.0213 139.594 42.8267ZM139.797 39.8369L139.809 40.6621H138.622C138.288 40.6621 137.99 40.6896 137.727 40.7446C137.465 40.7954 137.245 40.8737 137.067 40.9795C136.89 41.0853 136.754 41.2186 136.661 41.3794C136.568 41.536 136.521 41.7201 136.521 41.9316C136.521 42.1475 136.57 42.3442 136.667 42.522C136.765 42.6997 136.911 42.8415 137.105 42.9473C137.304 43.0488 137.548 43.0996 137.835 43.0996C138.195 43.0996 138.512 43.0234 138.788 42.8711C139.063 42.7188 139.281 42.5326 139.441 42.3125C139.606 42.0924 139.695 41.8787 139.708 41.6714L140.209 42.2363C140.18 42.4141 140.099 42.6108 139.968 42.8267C139.837 43.0425 139.661 43.2498 139.441 43.4487C139.226 43.6434 138.967 43.8063 138.667 43.9375C138.371 44.0645 138.036 44.1279 137.664 44.1279C137.198 44.1279 136.79 44.0369 136.439 43.855C136.092 43.673 135.821 43.4297 135.626 43.125C135.436 42.8161 135.341 42.4712 135.341 42.0903C135.341 41.7222 135.413 41.3984 135.557 41.1191C135.7 40.8356 135.908 40.6007 136.179 40.4146C136.449 40.2241 136.775 40.0802 137.156 39.9829C137.537 39.8856 137.962 39.8369 138.432 39.8369H139.797ZM149.516 34.251V44.001H148.335V34.251H149.516ZM153.712 37.1328L150.716 40.3384L149.04 42.0776L148.945 40.8271L150.144 39.3926L152.277 37.1328H153.712ZM152.639 44.001L150.189 40.7256L150.798 39.6782L154.023 44.001H152.639ZM163.367 44.1279C162.889 44.1279 162.455 44.0475 162.066 43.8867C161.681 43.7217 161.349 43.491 161.069 43.1948C160.794 42.8986 160.583 42.5474 160.435 42.1411C160.286 41.7349 160.212 41.2905 160.212 40.8081V40.5415C160.212 39.9829 160.295 39.4857 160.46 39.0498C160.625 38.6097 160.849 38.2373 161.133 37.9326C161.416 37.6279 161.738 37.3973 162.098 37.2407C162.457 37.0841 162.83 37.0059 163.215 37.0059C163.706 37.0059 164.129 37.0905 164.484 37.2598C164.844 37.429 165.138 37.666 165.367 37.9707C165.595 38.2712 165.764 38.6266 165.874 39.0371C165.985 39.4434 166.04 39.8877 166.04 40.3701V40.897H160.911V39.9385H164.865V39.8496C164.848 39.5449 164.785 39.2487 164.675 38.9609C164.569 38.6732 164.4 38.4362 164.167 38.25C163.934 38.0638 163.617 37.9707 163.215 37.9707C162.948 37.9707 162.703 38.0278 162.479 38.1421C162.254 38.2521 162.062 38.4172 161.901 38.6372C161.74 38.8573 161.615 39.126 161.526 39.4434C161.437 39.7607 161.393 40.1268 161.393 40.5415V40.8081C161.393 41.134 161.437 41.4408 161.526 41.7285C161.619 42.012 161.753 42.2617 161.926 42.4775C162.104 42.6934 162.318 42.8626 162.567 42.9854C162.821 43.1081 163.109 43.1694 163.431 43.1694C163.845 43.1694 164.197 43.0848 164.484 42.9155C164.772 42.7463 165.024 42.5199 165.24 42.2363L165.951 42.8013C165.803 43.0256 165.614 43.2393 165.386 43.4424C165.157 43.6455 164.876 43.8105 164.541 43.9375C164.211 44.0645 163.82 44.1279 163.367 44.1279ZM174.305 38.2119V44.001H173.131V37.1328H174.273L174.305 38.2119ZM176.45 37.0947L176.444 38.1865C176.347 38.1654 176.254 38.1527 176.165 38.1484C176.08 38.14 175.983 38.1357 175.873 38.1357C175.602 38.1357 175.363 38.1781 175.156 38.2627C174.948 38.3473 174.773 38.4658 174.629 38.6182C174.485 38.7705 174.371 38.9525 174.286 39.1641C174.206 39.3714 174.153 39.5999 174.127 39.8496L173.797 40.04C173.797 39.6253 173.837 39.236 173.918 38.8721C174.002 38.5081 174.131 38.1865 174.305 37.9072C174.478 37.6237 174.699 37.4036 174.965 37.2471C175.236 37.0863 175.558 37.0059 175.93 37.0059C176.015 37.0059 176.112 37.0164 176.222 37.0376C176.332 37.0545 176.408 37.0736 176.45 37.0947ZM185.3 43.29L187.21 37.1328H188.467L185.712 45.061C185.649 45.2303 185.564 45.4123 185.459 45.6069C185.357 45.8058 185.226 45.9941 185.065 46.1719C184.904 46.3496 184.71 46.4935 184.481 46.6035C184.257 46.7178 183.988 46.7749 183.675 46.7749C183.582 46.7749 183.463 46.7622 183.319 46.7368C183.176 46.7114 183.074 46.6903 183.015 46.6733L183.008 45.7212C183.042 45.7254 183.095 45.7297 183.167 45.7339C183.243 45.7424 183.296 45.7466 183.326 45.7466C183.592 45.7466 183.819 45.7106 184.005 45.6387C184.191 45.571 184.348 45.4546 184.475 45.2896C184.606 45.1287 184.718 44.9066 184.811 44.623L185.3 43.29ZM183.897 37.1328L185.681 42.4648L185.985 43.7026L185.141 44.1343L182.615 37.1328H183.897Z" fill="white"/>
</svg>
